<?xml version="1.0" encoding="utf-8"?>
<svg version="1.1" id="Layer_1" x="0px" y="0px" viewBox="0 0 1200 1200" enable-background="new 0 0 1200 1200" xmlns="http://www.w3.org/2000/svg">
  <g>
    <path fill="#707070" d="M568.233,53.025c2.356,4.418-7.304,11.797-18.961,18.011c-11.657,6.215-23.805,7.236-26.16,2.818 c-2.356-4.418,5.973-12.603,17.63-18.817S565.878,48.607,568.233,53.025z"/>
    <g>
      <g>
        <path fill="#ADADAD" d="M677.378,316.778L663.566,1150c-16.987-0.642-33.979-1.285-50.965-1.926l13.812-833.222L677.378,316.778z "/>
        <path fill="#C6C6C6" d="M637.261,315.262l40.117,1.516L663.566,1150l-40.136-1.517 C628.523,870.762,632.712,593.004,637.261,315.262z"/>
        <path fill="#E2E2E2" d="M667.715,316.413l-13.812,833.221l-15.289-0.578c4.115-277.757,9.134-555.484,13.793-833.222 L667.715,316.413z"/>
      </g>
      <g>
        <path fill="#ADADAD" d="M568.326,52.27c-8.789,13.48-24.663,23.63-39.845,20.983c-2.02,0.066-3.967-0.001-5.859-0.209 l103.865,262.15l47.079-19.157L568.326,52.27z"/>
        <path fill="#C6C6C6" d="M568.346,52.238c-7.654,11.763-20.698,21.009-34.002,21.461 c34.101,86.056,68.239,172.099,102.385,258.141l40.649-15.061L568.346,52.238z"/>
        <path fill="#E2E2E2" d="M561.521,60.662c-3.732,3.732-8.002,6.914-12.594,9.202c34.089,85.748,69.167,171.201,103.104,256.997 l15.728-6.567L561.521,60.662z"/>
      </g>
    </g>
  </g>
</svg>